<svg xmlns="http://www.w3.org/2000/svg" width="34" height="32">
  <path fill="#8e8f99" d="M5.315 31.394c.013 0 .025.003.036.007s.022.011.03.019l.172.162a1.413 1.413 0 0 1-.485.307 1.897 1.897 0 0 1-.687.11 1.853 1.853 0 0 1-.646-.103 1.414 1.414 0 0 1-.487-.291 1.3 1.3 0 0 1-.315-.449 1.49 1.49 0 0 1-.11-.576 1.338 1.338 0 0 1 .453-1.027c.147-.127.323-.226.517-.293a2.07 2.07 0 0 1 .666-.103c.211-.004.422.028.618.094.171.063.327.151.463.26l-.144.173a.125.125 0 0 1-.037.031.098.098 0 0 1-.058.013.144.144 0 0 1-.062-.018l-.078-.046-.108-.059a1.198 1.198 0 0 0-.34-.103 1.567 1.567 0 0 0-.256-.018 1.421 1.421 0 0 0-.478.077 1.109 1.109 0 0 0-.375.217 1 1 0 0 0-.243.346 1.13 1.13 0 0 0-.088.457c-.003.158.027.315.088.464.053.127.134.244.239.344.099.093.221.166.358.214.141.05.292.075.444.074.088.001.176-.004.263-.015a1.068 1.068 0 0 0 .569-.237.13.13 0 0 1 .082-.029zM10.292 30.58c.003.195-.037.389-.116.573-.07.166-.181.318-.325.445s-.317.226-.509.292a2.14 2.14 0 0 1-1.31 0 1.514 1.514 0 0 1-.506-.293 1.291 1.291 0 0 1-.327-.449 1.473 1.473 0 0 1 0-1.147c.074-.167.185-.32.327-.451.144-.123.317-.218.506-.282.421-.14.889-.14 1.31 0 .191.066.365.166.508.293a1.316 1.316 0 0 1 .441 1.02zm-.453 0a1.196 1.196 0 0 0-.082-.46.941.941 0 0 0-.231-.344 1.012 1.012 0 0 0-.364-.217 1.533 1.533 0 0 0-.952 0 1.026 1.026 0 0 0-.364.217.926.926 0 0 0-.233.344c-.11.3-.11.621 0 .92a.939.939 0 0 0 .233.344c.101.094.225.168.364.215.307.098.645.098.952 0 .139-.048.263-.121.364-.215a.967.967 0 0 0 .231-.344c.058-.148.085-.304.082-.46zM13.687 31.062l.045.103c.017-.037.032-.07.05-.103a.833.833 0 0 1 .056-.101l1.101-1.71c.022-.029.041-.048.063-.053a.273.273 0 0 1 .09-.009h.325v2.781h-.386v-2.132a.769.769 0 0 1 0-.096l-1.107 1.734c-.014.026-.037.048-.065.063s-.061.023-.095.023h-.062c-.034 0-.066-.008-.095-.023s-.051-.037-.065-.064l-1.14-1.745V31.962h-.373v-2.776h.325a.336.336 0 0 1 .09.009c.027.011.048.03.06.053l1.125 1.712a.61.61 0 0 1 .056.099zM17.83 30.924v1.042h-.431v-2.777h.961c.181-.003.362.017.536.061.139.034.269.093.379.173a.718.718 0 0 1 .215.272.814.814 0 0 1 .073.355.774.774 0 0 1-.313.633c-.111.084-.24.146-.381.184a1.847 1.847 0 0 1-.519.064l-.521-.007zm0-.298h.521c.113.001.226-.013.334-.042a.727.727 0 0 0 .241-.12.532.532 0 0 0 .198-.418c.005-.077-.01-.154-.043-.226s-.085-.137-.151-.19a.935.935 0 0 0-.579-.149h-.521v1.145zM23.621 31.97h-.34a.164.164 0 0 1-.095-.026.171.171 0 0 1-.056-.064l-.293-.672h-1.471l-.304.672a.162.162 0 0 1-.151.091h-.34l1.293-2.782h.448l1.31 2.782zm-2.133-1.033h1.215l-.513-1.132a1.783 1.783 0 0 1-.097-.261l-.05.145a1.317 1.317 0 0 1-.047.118l-.509 1.13zM25.483 29.201a.18.18 0 0 1 .065.05l1.885 2.097v-2.16h.386v2.782h-.215a.2.2 0 0 1-.088-.017.224.224 0 0 1-.069-.052l-1.883-2.095a.769.769 0 0 1 0 .096v2.068h-.386v-2.782h.228a.206.206 0 0 1 .078.013zM30.993 30.863v1.104h-.431v-1.104l-1.191-1.675h.386a.158.158 0 0 1 .093.024.248.248 0 0 1 .058.063l.745 1.081c.03.046.056.088.078.129s.039.079.054.118l.056-.12a.947.947 0 0 1 .073-.127l.735-1.088a.26.26 0 0 1 .056-.059.15.15 0 0 1 .093-.028h.39l-1.194 1.683zM13.474 24.521c.187.02.377.037.569.052 2.907-1.111 5.366-2.93 7.07-5.228s2.577-4.975 2.511-7.696L20.42 8.912c.651 2.896.347 5.89-.88 8.647s-3.327 5.167-6.066 6.962z"/>
  <path fill="#8e8f99" d="m12.33 24.393.086.015c2.927-1.789 5.158-4.286 6.406-7.17s1.454-6.021.592-9.006l-4.563-3.899c1.846 3.205 2.589 6.791 2.142 10.342s-2.063 6.921-4.663 9.718zM27.805 14.862c-.775 2.989-2.658 5.685-5.369 7.687a17.175 17.175 0 0 1-2.551 1.565c2.207-.554 4.236-1.534 5.93-2.865s3.008-2.975 3.84-4.808l-1.851-1.579z"/>
  <path fill="#8e8f99" d="m27.079 14.422-2.635-2.251c-.05 2.567-.904 5.075-2.473 7.264s-3.795 3.98-6.448 5.185h.013c.591 0 1.182-.03 1.769-.09 2.479-.865 4.669-2.24 6.375-4.004s2.874-3.861 3.4-6.104zM12.711 2.689 9.568 0c-2.81.928-5.227 2.559-6.934 4.679S.009 9.311 0 11.885c.011 2.844 1.131 5.604 3.184 7.843s4.921 3.829 8.151 4.518c2.883-3.001 4.571-6.709 4.818-10.586s-.958-7.72-3.442-10.971zM34.341 14.008c-.011-3.374-1.585-6.608-4.378-8.994s-6.577-3.731-10.526-3.74a16.975 16.975 0 0 0-5.337.849l19.245 16.443c.659-1.454.997-2.999.995-4.558z"/>
</svg>
